<?xml version="1.0" encoding="UTF-8" standalone="no"?>
<!-- Generator: Adobe Illustrator 18.0.0, SVG Export Plug-In . SVG Version: 6.00 Build 0)  -->

<svg
   xmlns:dc="http://purl.org/dc/elements/1.1/"
   xmlns:cc="http://creativecommons.org/ns#"
   xmlns:rdf="http://www.w3.org/1999/02/22-rdf-syntax-ns#"
   xmlns:svg="http://www.w3.org/2000/svg"
   xmlns="http://www.w3.org/2000/svg"
   xmlns:xlink="http://www.w3.org/1999/xlink"
   xmlns:sodipodi="http://sodipodi.sourceforge.net/DTD/sodipodi-0.dtd"
   xmlns:inkscape="http://www.inkscape.org/namespaces/inkscape"
   version="1.1"
   id="Capa_1"
   x="0px"
   y="0px"
   viewBox="0 0 384.747 384.747"
   xml:space="preserve"
   width="512"
   height="512"
   inkscape:version="0.91 r13725"
   sodipodi:docname="J3D-Icon.svg"
   inkscape:export-filename="C:\Users\jherwig\Desktop\Screenshots\P3D-Icon.png"
   inkscape:export-xdpi="90"
   inkscape:export-ydpi="90"><metadata
     id="metadata43"><rdf:RDF><cc:Work
         rdf:about=""><dc:format>image/svg+xml</dc:format><dc:type
           rdf:resource="http://purl.org/dc/dcmitype/StillImage" /><dc:title></dc:title></cc:Work></rdf:RDF></metadata><defs
     id="defs41"><linearGradient
       id="linearGradient3865"><stop
         style="stop-color:#6b6b6b;stop-opacity:1;"
         offset="0"
         id="stop3867" /><stop
         style="stop-color:#545454;stop-opacity:0;"
         offset="1"
         id="stop3869" /></linearGradient><linearGradient
       inkscape:collect="always"
       xlink:href="#linearGradient3865"
       id="linearGradient3881"
       x1="168.35416"
       y1="264.99866"
       x2="215.81891"
       y2="-7.6349459"
       gradientUnits="userSpaceOnUse" /><filter
       id="filter"><feGaussianBlur
         id="feGaussianBlur7"
         stdDeviation="0.4858" /></filter><inkscape:perspective
       id="perspective18"
       inkscape:persp3d-origin="10 : 6.6666667 : 1"
       inkscape:vp_z="20 : 10 : 1"
       inkscape:vp_y="0 : 1000 : 0"
       inkscape:vp_x="0 : 10 : 1"
       sodipodi:type="inkscape:persp3d" /><filter
       inkscape:collect="always"
       style="color-interpolation-filters:sRGB"
       id="filter4239"
       x="-0.041143127"
       width="1.0822864"
       y="-0.13956177"
       height="1.2791235"><feGaussianBlur
         inkscape:collect="always"
         stdDeviation="5.4349731"
         id="feGaussianBlur4241" /></filter></defs><sodipodi:namedview
     pagecolor="#ffffff"
     bordercolor="#666666"
     borderopacity="1"
     objecttolerance="10"
     gridtolerance="10"
     guidetolerance="10"
     inkscape:pageopacity="0"
     inkscape:pageshadow="2"
     inkscape:window-width="2495"
     inkscape:window-height="1416"
     id="namedview39"
     showgrid="false"
     inkscape:zoom="0.32593203"
     inkscape:cx="-995.16405"
     inkscape:cy="-602.61793"
     inkscape:window-x="65"
     inkscape:window-y="24"
     inkscape:window-maximized="1"
     inkscape:current-layer="Capa_1"
     showborder="true"
     fit-margin-top="0"
     fit-margin-left="0"
     fit-margin-right="0"
     fit-margin-bottom="0" /><g
     id="g4609"
     transform="translate(-0.04755358,2.1207304e-5)"><g
       transform="translate(-2.2932708e-5,0)"
       id="g4476"><path
         inkscape:connector-curvature="0"
         style="fill:url(#linearGradient3881);fill-opacity:1"
         id="path7"
         d="M 334.74,72.061 C 338.266,47.349 333.507,27.646 320.881,15.02 310.637,4.777 296.131,-0.276 277.607,0.011 c -17.02,0.262 -36.57,5.048 -58.114,14.209 -6.769,-0.739 -13.616,-1.127 -20.524,-1.127 -49.637,0 -96.302,19.329 -131.399,54.428 -41.397,41.397 -59.129,97.627 -53.221,151.741 -9.214,21.617 -14.026,41.23 -14.29,58.299 -0.285,18.471 4.764,33.031 15.008,43.275 9.928,9.927 24.227,15.005 41.905,15.005 4.798,0 9.859,-0.396 15.135,-1.149 34.533,32.321 79.331,50.055 126.862,50.055 49.637,0 96.302,-19.33 131.399,-54.427 70.961,-70.962 72.411,-185.502 4.372,-258.259 z M 315.224,20.677 c 9.754,9.754 13.952,24.897 12.319,44.088 -25.874,-24.825 -57.699,-41.324 -92.21,-48.134 35.815,-12.656 64.5,-11.344 79.891,4.046 z M 20.721,315.179 C 5.299,299.756 4.015,270.986 16.754,235.069 c 6.636,33.718 22.656,65.934 48.055,92.422 -19.195,1.635 -34.337,-2.562 -44.088,-12.312 z m 303.99,9.484 c -33.587,33.587 -78.244,52.085 -125.743,52.085 -43.455,0 -84.526,-15.491 -116.924,-43.846 19.281,-4.231 40.979,-12.989 63.301,-25.596 1.924,-1.086 2.602,-3.526 1.516,-5.45 -1.086,-1.923 -3.525,-2.603 -5.449,-1.516 -23.849,13.469 -46.831,22.365 -66.639,25.833 -0.515,-0.503 -1.036,-0.999 -1.547,-1.51 C 3.891,255.328 3.891,142.512 73.226,73.177 106.813,39.59 151.47,21.093 198.969,21.093 c 47.499,0 92.156,18.497 125.743,52.084 0.511,0.511 1.007,1.033 1.511,1.55 -3.729,21.292 -13.657,46.063 -28.827,71.815 -1.121,1.903 -0.487,4.355 1.416,5.477 0.638,0.376 1.337,0.554 2.026,0.554 1.37,0 2.705,-0.705 3.45,-1.97 14.285,-24.248 24.091,-47.773 28.657,-68.601 60.97,69.772 58.234,176.193 -8.234,242.661 z" /><path
         style="fill:#666666"
         id="path13"
         d="m 291.02821,162.53439 c 0.74194,0.75172 0.6674,1.69649 -1.91693,7.24305 -0.30445,0.661 -2.00059,3.04993 -2.00059,3.04993 0,0 1.13172,1.25294 1.43815,1.55909 0.59243,0.6048 0.86383,1.93305 0.61844,2.98203 -0.76142,3.2545 -9.87508,16.21899 -14.97165,21.28789 -3.16279,3.14665 -4.79479,5.29761 -4.68448,6.1746 0.0864,0.73526 1.28045,3.92613 2.63779,7.0658 2.39634,5.54023 3.2965,6.63027 30.41509,36.9707 21.47529,24.02562 28.04529,31.77778 28.4317,33.52997 1.07217,4.85641 -3.14067,9.35433 -14.00605,14.95372 l -5.60557,2.88899 c 0,0 -81.47875,-58.66262 -81.47875,-58.66262 l -49.03751,37.04221 1.11358,1.99661 c 0.61612,1.08983 5.71284,7.48406 11.32898,14.20515 5.61602,6.71894 10.2731,12.85212 10.34349,13.63295 0.28297,3.13846 -12.30525,12.97163 -14.18543,11.0821 -2.96758,-2.98393 -15.42304,-12.53815 -16.47547,-12.64409 -0.75134,-0.002 -11.45792,-8.28436 -15.0921,-11.93727 -3.6343,-3.6546 -11.78659,-14.405 -11.85766,-15.15594 -0.10025,-1.05916 -9.58857,-13.55933 -12.55615,-16.54164 -1.88016,-1.89125 8.02096,-14.42712 11.15757,-14.12752 0.78034,0.14852 6.88786,4.76452 13.57807,10.41598 6.69013,5.65201 13.05434,10.78239 14.14481,11.40421 l 1.98934,1.12279 37.30393,-48.83974 c 0,0 -58.2287,-81.78968 -58.2287,-81.78968 l 2.91824,-5.59123 c 5.65663,-10.83513 10.17709,-15.02252 15.0281,-13.9257 1.7494,0.40066 9.46672,7.00748 33.37853,28.6103 30.19527,27.27867 31.28132,28.18424 36.80791,30.60973 3.13226,1.37596 6.31232,2.57942 7.05204,2.67584 0.87589,0.14876 3.03566,-1.50497 6.19852,-4.65164 5.09657,-5.06888 18.10963,-14.11327 21.36842,-14.85755 1.0504,-0.24681 2.38442,0.006 2.9776,0.64041 0.30622,0.31006 1.53321,1.42966 1.53321,1.42966 0,0 2.40428,-1.68283 3.06048,-1.9854 5.55925,-2.55504 6.53036,-2.60556 7.27273,-1.85821 z"
         inkscape:connector-curvature="0" /><g
         transform="translate(-73.642982,-27.322706)"
         id="text3010-1"
         style="font-style:normal;font-weight:normal;font-size:30.05835915px;line-height:125%;font-family:Sans;letter-spacing:0px;word-spacing:0px;fill:#597d97;fill-opacity:1;stroke:none"><path
           d="m 446.3125,37.859375 c -1.9268,2.3e-5 -3.83243,0.503001 -5.6543,1.484375 -1.8343,0.988109 -3.2555,2.411898 -4.28125,4.246094 -1.02123,1.826152 -1.54883,3.726631 -1.54883,5.722656 0,1.974917 0.51022,3.876204 1.51758,5.689453 1.01065,1.819166 2.42658,3.26876 4.2461,4.277344 1.81242,1.004663 3.73992,1.486328 5.7207,1.486328 1.98076,0 3.87872,-0.482619 5.68945,-1.486328 1.81923,-1.008435 3.23989,-2.457108 4.2461,-4.277344 1.00186,-1.812443 1.51755,-3.713871 1.51757,-5.689453 -2e-5,-1.996685 -0.5331,-3.895347 -1.54882,-5.720703 -1.0213,-1.835245 -2.44724,-3.26008 -4.28125,-4.248047 -1.8202,-0.980463 -3.69627,-1.484352 -5.62305,-1.484375 z m 0,2.59375 c 1.47501,1.9e-5 2.91535,0.399889 4.3457,1.171875 1.41564,0.764096 2.48738,1.828677 3.28125,3.251953 0.79842,1.431537 1.20116,2.899547 1.20117,4.435547 -1e-5,1.528521 -0.38728,2.994577 -1.16992,4.404297 -0.7802,1.405271 -1.84902,2.503099 -3.2539,3.285156 -1.41439,0.787335 -2.87501,1.169923 -4.4043,1.169922 -1.52931,10e-7 -2.98993,-0.382588 -4.4043,-1.169922 -1.40664,-0.783024 -2.50163,-1.884263 -3.28515,-3.287109 -0.78684,-1.408755 -1.16992,-2.873027 -1.16993,-4.402344 0,-1.53679 0.39659,-3.003005 1.19922,-4.433594 0.79893,-1.423955 1.87226,-2.489824 3.28321,-3.253906 1.42335,-0.770768 2.8917,-1.171856 4.37695,-1.171875 z m -4.875,2.6875 a 0.39060415,0.39060415 0 0 0 -0.39062,0.390625 l 0,11.90625 a 0.39060415,0.39060415 0 0 0 0.39062,0.390625 l 1.9375,0 a 0.39060415,0.39060415 0 0 0 0.39062,-0.390625 l 0,-4.671875 0.73438,0 c 0.62412,9e-6 1.03313,0.123657 1.29102,0.324219 a 0.39060415,0.39060415 0 0 0 0.01,0.0059 c 0.38759,0.283254 1.06777,1.196463 1.89063,2.658203 a 0.39060415,0.39060415 0 0 0 0,0.002 l 1.0625,1.875 a 0.39060415,0.39060415 0 0 0 0.33984,0.197266 l 2.34375,0 a 0.39060415,0.39060415 0 0 0 0.33203,-0.597656 l -1.4375,-2.3125 a 0.39060415,0.39060415 0 0 0 -0.002,0 c -0.70131,-1.116146 -1.28058,-1.931914 -1.80664,-2.447266 a 0.39060415,0.39060415 0 0 0 -0.002,-0.002 c -0.0828,-0.07963 -0.21554,-0.119857 -0.31054,-0.189453 0.67262,-0.198004 1.28784,-0.488093 1.75781,-0.976563 0.68221,-0.709069 1.04685,-1.587362 1.04687,-2.552734 -2e-5,-0.696953 -0.2213,-1.365147 -0.63085,-1.96875 -0.41542,-0.612147 -0.99326,-1.06049 -1.69336,-1.306641 -0.71743,-0.252198 -1.74379,-0.333967 -3.16016,-0.333984 l -4.09375,0 z m 2.32812,2.375 1.79688,0 c 0.91665,1.5e-5 1.51441,0.09312 1.76367,0.191406 0.28526,0.112513 0.48315,0.2703 0.63477,0.486328 0.16039,0.228629 0.24218,0.447029 0.24218,0.712891 0,0.443919 -0.16059,0.777353 -0.48242,1.041016 -0.27101,0.222029 -0.95683,0.412121 -2.0332,0.412109 l -1.92188,0 0,-2.84375 z"
           id="path3806"
           style="fill:#597d97;fill-opacity:1"
           inkscape:original="M 446.3125 38.25 C 444.45341 38.250022 442.61476 38.733521 440.84375 39.6875 C 439.07273 40.64152 437.71189 42.00536 436.71875 43.78125 C 435.72561 45.557174 435.21875 47.384942 435.21875 49.3125 C 435.21875 51.22051 435.70904 53.051275 436.6875 54.8125 C 437.66596 56.573735 439.02491 57.963933 440.78125 58.9375 C 442.53758 59.911071 444.39471 60.375 446.3125 60.375 C 448.23027 60.375 450.05614 59.911071 451.8125 58.9375 C 453.56882 57.963933 454.93266 56.573735 455.90625 54.8125 C 456.8798 53.051275 457.37498 51.22051 457.375 49.3125 C 457.37498 47.384942 456.86322 45.557174 455.875 43.78125 C 454.88673 42.00536 453.521 40.64152 451.75 39.6875 C 449.97897 38.733521 448.17157 38.250022 446.3125 38.25 z M 446.3125 40.0625 C 447.85846 40.06252 449.36626 40.483823 450.84375 41.28125 C 452.32121 42.078715 453.45443 43.205147 454.28125 44.6875 C 455.10803 46.169884 455.53123 47.707834 455.53125 49.3125 C 455.53123 50.907402 455.1246 52.443457 454.3125 53.90625 C 453.50035 55.369056 452.37393 56.526737 450.90625 57.34375 C 449.43854 58.160768 447.90738 58.562501 446.3125 58.5625 C 444.7176 58.562501 443.18644 58.160768 441.71875 57.34375 C 440.25105 56.526737 439.09826 55.369056 438.28125 53.90625 C 437.46423 52.443457 437.0625 50.907402 437.0625 49.3125 C 437.0625 47.707834 437.48081 46.169884 438.3125 44.6875 C 439.14419 43.205147 440.27741 42.078715 441.75 41.28125 C 443.22258 40.483823 444.75674 40.06252 446.3125 40.0625 z M 441.4375 43.53125 L 441.4375 55.4375 L 443.375 55.4375 L 443.375 50.375 L 444.5 50.375 C 445.17513 50.37501 445.67899 50.50729 446.03125 50.78125 C 446.54003 51.153075 447.19954 52.08503 448.03125 53.5625 L 449.09375 55.4375 L 451.4375 55.4375 L 450 53.125 C 449.30528 52.019346 448.72943 51.219671 448.25 50.75 C 447.99558 50.505394 447.63947 50.301133 447.21875 50.125 C 448.24612 50.046733 449.06616 49.677046 449.6875 49.03125 C 450.30881 48.385477 450.62498 47.620844 450.625 46.75 C 450.62498 46.133583 450.4343 45.547954 450.0625 45 C 449.69067 44.452077 449.18871 44.06392 448.5625 43.84375 C 447.93628 43.623613 446.93044 43.531267 445.53125 43.53125 L 441.4375 43.53125 z M 443.375 45.125 L 445.5625 45.125 C 446.50181 45.125015 447.12139 45.20678 447.46875 45.34375 C 447.81609 45.480749 448.08555 45.689903 448.28125 45.96875 C 448.47689 46.247626 448.59374 46.554017 448.59375 46.90625 C 448.59374 47.454201 448.3748 47.917335 447.96875 48.25 C 447.56267 48.582688 446.80293 48.750012 445.6875 48.75 L 443.375 48.75 L 443.375 45.125 z "
           inkscape:radius="0.3905651"
           sodipodi:type="inkscape:offset" /></g></g><g
       transform="matrix(1.1045361,0,0,0.90535746,3.7110772,110.46259)"
       style="font-style:normal;font-weight:normal;font-size:128.56056213px;line-height:125%;font-family:sans-serif;letter-spacing:0px;word-spacing:0px;opacity:0.6;fill:#000000;fill-opacity:1;stroke:none;stroke-width:1px;stroke-linecap:butt;stroke-linejoin:miter;stroke-opacity:1;filter:url(#filter4239)"
       id="text4163-4"><path
         d="m 12.288987,-0.96642447 0,-16.32719153 34.197109,0 q 16.327192,0 23.526583,-6.299467 7.199392,-6.299468 7.199392,-19.926888 l 0,-50.909982 16.327191,0 0,50.909982 q 0,21.726735 -11.31333,32.140141 -11.313329,10.41340553 -35.739836,10.41340553 l -34.197109,0 z"
         style="font-style:normal;font-variant:normal;font-weight:normal;font-stretch:normal;font-family:'Good Times';-inkscape-font-specification:'Good Times';letter-spacing:7.51458979px;fill:#000000;fill-opacity:1"
         id="path4391"
         inkscape:connector-curvature="0" /><path
         d="m 113.77934,-0.96642447 0,-16.32719153 60.03778,0 q 7.71363,0 12.59893,-3.085453 4.88531,-3.085454 4.88531,-9.256361 0,-5.785225 -3.5997,-8.870679 -3.5997,-3.085453 -10.54197,-3.085453 l -41.26794,0 0,-13.75598 40.1109,0 q 6.94227,0 10.28484,-2.571211 3.34258,-2.571212 3.34258,-8.742119 0,-6.556588 -4.37106,-8.999239 -4.37106,-2.571211 -12.47038,-2.571211 l -58.62361,0 0,-16.198631 61.83763,0 q 6.81371,0 12.34181,1.542727 5.52811,1.542726 9.51348,4.62818 3.98538,2.956893 6.04235,7.585073 2.18553,4.49962 2.18553,10.413406 0,8.870678 -3.85682,13.627419 -3.72825,4.62818 -8.99924,6.299468 6.42803,2.056969 10.54197,7.456512 4.11394,5.399544 4.11394,13.62742 0,6.428028 -2.18553,11.699011 -2.05697,5.142423 -6.04235,8.8706788 -3.85681,3.5996957 -9.51348,5.6566647 -5.5281,2.05696903 -12.34181,2.05696903 l -64.02316,0 z"
         style="font-style:normal;font-variant:normal;font-weight:normal;font-stretch:normal;font-family:'Good Times';-inkscape-font-specification:'Good Times';letter-spacing:7.51458979px;fill:#000000;fill-opacity:1"
         id="path4393"
         inkscape:connector-curvature="0" /><path
         d="m 229.69257,-0.96642447 0,-93.46352853 54.124,0 q 9.89916,0 18.2556,3.342574 8.35644,3.342575 14.39878,9.384922 6.04235,6.042346 9.38492,14.527343 3.47114,8.356437 3.47114,18.512721 0,10.156284 -3.47114,18.898403 -3.34257,8.742118 -9.38492,15.170146 -6.04234,6.2994675 -14.39878,10.0277238 -8.35644,3.59969573 -18.2556,3.59969573 l -54.124,0 z m 54.124,-16.32719153 q 6.29947,0 11.57045,-2.31409 5.39954,-2.31409 9.25636,-6.299468 3.98538,-4.113938 6.17091,-9.770602 2.18553,-5.656665 2.18553,-12.213254 0,-6.556588 -2.18553,-12.084692 -2.18553,-5.656665 -6.17091,-9.642043 -3.85682,-3.985377 -9.25636,-6.170907 -5.27098,-2.31409 -11.57045,-2.31409 l -37.92537,0 0,60.809146 37.92537,0 z"
         style="font-style:normal;font-variant:normal;font-weight:normal;font-stretch:normal;font-family:'Good Times';-inkscape-font-specification:'Good Times';letter-spacing:7.51458979px;fill:#000000;fill-opacity:1"
         id="path4395"
         inkscape:connector-curvature="0" /></g><g
       transform="matrix(1.1045361,0,0,0.90535746,5.2139952,107.45675)"
       style="font-style:normal;font-weight:normal;font-size:128.56056213px;line-height:125%;font-family:sans-serif;letter-spacing:0px;word-spacing:0px;fill:#597d97;fill-opacity:1;stroke:none;stroke-width:1px;stroke-linecap:butt;stroke-linejoin:miter;stroke-opacity:1"
       id="text4163"><path
         d="m 5.1225121,-3.5566647 0,-16.3271913 34.1971099,0 q 16.327191,0 23.526582,-6.299468 7.199392,-6.299467 7.199392,-19.926887 l 0,-50.909982 16.327191,0 0,50.909982 q 0,21.726735 -11.313329,32.140141 -11.31333,10.4134053 -35.739836,10.4134053 l -34.1971099,0 z"
         style="font-style:normal;font-variant:normal;font-weight:normal;font-stretch:normal;font-family:'Good Times';-inkscape-font-specification:'Good Times';letter-spacing:7.51458979px;fill:#000000;fill-opacity:1"
         id="path4398"
         inkscape:connector-curvature="0" /><path
         d="m 106.61286,-3.5566647 0,-16.3271913 60.03778,0 q 7.71364,0 12.59894,-3.085454 4.8853,-3.085453 4.8853,-9.25636 0,-5.785225 -3.59969,-8.870679 -3.5997,-3.085453 -10.54197,-3.085453 l -41.26794,0 0,-13.75598 40.11089,0 q 6.94227,0 10.28485,-2.571212 3.34257,-2.571211 3.34257,-8.742118 0,-6.556589 -4.37106,-8.999239 -4.37105,-2.571212 -12.47037,-2.571212 l -58.62362,0 0,-16.19863 61.83763,0 q 6.81371,0 12.34182,1.542726 5.5281,1.542727 9.51348,4.628181 3.98538,2.956893 6.04235,7.585073 2.18553,4.499619 2.18553,10.413405 0,8.870679 -3.85682,13.62742 -3.72826,4.62818 -8.99924,6.299467 6.42803,2.056969 10.54197,7.456513 4.11393,5.399544 4.11393,13.62742 0,6.428028 -2.18553,11.699011 -2.05696,5.142422 -6.04234,8.870679 -3.85682,3.5996953 -9.51348,5.6566643 -5.52811,2.056969 -12.34182,2.056969 l -64.02316,0 z"
         style="font-style:normal;font-variant:normal;font-weight:normal;font-stretch:normal;font-family:'Good Times';-inkscape-font-specification:'Good Times';letter-spacing:7.51458979px;fill:#597d97;fill-opacity:1"
         id="path4400"
         inkscape:connector-curvature="0" /><path
         d="m 222.5261,-3.5566647 0,-93.4635283 54.124,0 q 9.89916,0 18.2556,3.342574 8.35643,3.342575 14.39878,9.384921 6.04234,6.042347 9.38492,14.527344 3.47113,8.356436 3.47113,18.512721 0,10.156284 -3.47113,18.898402 -3.34258,8.742119 -9.38492,15.170147 -6.04235,6.299467 -14.39878,10.0277236 -8.35644,3.5996957 -18.2556,3.5996957 l -54.124,0 z m 54.124,-16.3271913 q 6.29946,0 11.57045,-2.31409 5.39954,-2.31409 9.25636,-6.299468 3.98537,-4.113938 6.1709,-9.770602 2.18553,-5.656665 2.18553,-12.213254 0,-6.556589 -2.18553,-12.084693 -2.18553,-5.656664 -6.1709,-9.642042 -3.85682,-3.985377 -9.25636,-6.170907 -5.27099,-2.31409 -11.57045,-2.31409 l -37.92537,0 0,60.809146 37.92537,0 z"
         style="font-style:normal;font-variant:normal;font-weight:normal;font-stretch:normal;font-family:'Good Times';-inkscape-font-specification:'Good Times';letter-spacing:7.51458979px;fill:#597d97;fill-opacity:1"
         id="path4402"
         inkscape:connector-curvature="0" /></g></g><g
     id="g9"
     transform="translate(-0.04755358,2.1207304e-5)" /><g
     id="g11"
     transform="translate(-0.04755358,2.1207304e-5)" /><g
     id="g13"
     transform="translate(-0.04755358,2.1207304e-5)" /><g
     id="g15"
     transform="translate(-0.04755358,2.1207304e-5)" /><g
     id="g17"
     transform="translate(-0.04755358,2.1207304e-5)" /><g
     id="g19"
     transform="translate(-0.04755358,2.1207304e-5)" /><g
     id="g21"
     transform="translate(-0.04755358,2.1207304e-5)" /><g
     id="g23"
     transform="translate(-0.04755358,2.1207304e-5)" /><g
     id="g25"
     transform="translate(-0.04755358,2.1207304e-5)" /><g
     id="g27"
     transform="translate(-0.04755358,2.1207304e-5)" /><g
     id="g29"
     transform="translate(-0.04755358,2.1207304e-5)" /><g
     id="g31"
     transform="translate(-0.04755358,2.1207304e-5)" /><g
     id="g33"
     transform="translate(-0.04755358,2.1207304e-5)" /><g
     id="g35"
     transform="translate(-0.04755358,2.1207304e-5)" /><g
     id="g37"
     transform="translate(-0.04755358,2.1207304e-5)" /></svg>